<?xml version="1.0" encoding="utf-8"?>
<!-- Generator: Adobe Illustrator 24.0.1, SVG Export Plug-In . SVG Version: 6.00 Build 0)  -->
<svg version="1.1" id="Group_516" xmlns="http://www.w3.org/2000/svg" xmlns:xlink="http://www.w3.org/1999/xlink" x="0px" y="0px"
	 viewBox="0 0 18.6 18.6" style="enable-background:new 0 0 18.6 18.6;" xml:space="preserve">
<style type="text/css">
	.st0{fill:#FFFFFF;}
</style>
<path id="Path_113" class="st0" d="M4.4,7.4H2.9c0.3-3.5,3.3-6.2,6.9-5.9c2.5,0.2,4.6,1.8,5.5,4.2c0.2,0.4,0.6,0.5,1,0.4
	c0.3-0.1,0.5-0.5,0.4-0.9c-1.5-4.1-6-6.1-10.1-4.6c-3,1.1-5.1,4-5.1,7.3C0.6,8.3,0,9.2,0,10.3v2.5c0,1.6,1.3,2.9,2.9,2.9h1.5
	c0.4,0,0.7-0.3,0.7-0.7c0,0,0,0,0,0V8.1C5.1,7.7,4.8,7.4,4.4,7.4z M3.6,14.2H2.9c-0.8,0-1.5-0.7-1.5-1.5v-2.5c0-0.8,0.7-1.5,1.5-1.5
	h0.7L3.6,14.2z"/>
<path id="Path_114" class="st0" d="M15.7,7.4h-1.5c-0.4,0-0.7,0.3-0.7,0.7c0,0,0,0,0,0v7.6c0,0.4-0.3,0.7-0.7,0.7h-2.2v0
	c-0.4-0.7-1.3-1-2-0.6c-0.7,0.4-1,1.3-0.6,2s1.3,1,2,0.6c0.2-0.1,0.4-0.3,0.6-0.6v0h2.2c1.2,0,2.2-1,2.2-2.2v0h0.7
	c1.6,0,2.9-1.3,2.9-2.9v-2.5C18.6,8.7,17.3,7.4,15.7,7.4C15.7,7.4,15.7,7.4,15.7,7.4z M17.2,12.8c0,0.8-0.7,1.5-1.5,1.5H15V8.8h0.7
	c0.8,0,1.5,0.7,1.5,1.5V12.8z"/>
</svg>
