<?xml version="1.0" encoding="utf-8"?>
<!-- Generator: Adobe Illustrator 24.0.1, SVG Export Plug-In . SVG Version: 6.00 Build 0)  -->
<svg version="1.1" id="Layer_1" xmlns="http://www.w3.org/2000/svg" xmlns:xlink="http://www.w3.org/1999/xlink" x="0px" y="0px"
	 viewBox="0 0 17.9 18.1" style="enable-background:new 0 0 17.9 18.1;" xml:space="preserve">
<style type="text/css">
	.st0{fill:none;stroke:#FFFFFF;stroke-miterlimit:10;}
</style>
<g id="Group_1" transform="translate(-1229.043 -30.121)">
	<path id="Path_406" class="st0" d="M1240.5,42.9c-0.4,0-0.7-0.1-1-0.2c-0.5-0.2-1-0.4-1.4-0.6c-1.4-0.8-2.5-2-3.2-3.4
		c-0.2-0.4-0.4-0.9-0.5-1.4c-0.2-0.7,0-1.5,0.5-2c0.2-0.2,0.5-0.4,0.7-0.4c0.1,0,0.3,0,0.4,0c0.1,0,0.2,0,0.2,0.1
		c0.1,0.2,0.3,0.4,0.4,0.6c0.2,0.3,0.4,0.7,0.6,1c0.1,0.1,0.1,0.4,0,0.5c0,0,0,0,0,0c-0.1,0.1-0.2,0.2-0.4,0.3s-0.3,0.2-0.4,0.4
		c-0.1,0.1-0.2,0.3-0.1,0.5c0.2,0.3,0.4,0.6,0.6,0.9c0.5,0.7,1.2,1.3,1.9,1.7c0.1,0.1,0.3,0.1,0.4,0.2c0.1,0.1,0.3,0,0.4-0.1
		c0.1-0.1,0.3-0.3,0.4-0.4c0.1-0.1,0.2-0.3,0.4-0.4c0.1-0.1,0.3-0.2,0.4-0.1c0,0,0,0,0,0c0.5,0.3,0.9,0.5,1.4,0.8
		c0.1,0.1,0.2,0.1,0.3,0.2c0,0,0.1,0.1,0.1,0.1c0,0.3-0.1,0.6-0.2,0.9c-0.1,0.2-0.2,0.3-0.4,0.4C1241.4,42.6,1241,42.8,1240.5,42.9z
		"/>
	<g id="Group_1374" transform="translate(1835.203 -360.372)">
		<path id="Path_404" class="st0" d="M-604.9,407.9c0.2-1.1,0.5-2.2,0.7-3.3c0-0.2,0-0.5-0.1-0.7c-2.5-4-1.3-9.2,2.7-11.6
			c0.9-0.6,2-1,3-1.2c4.6-0.7,9,2.4,9.7,7c0,0.1,0,0.3,0.1,0.4c0.4,4.5-2.7,8.5-7.2,9.2c-1.7,0.3-3.4,0-4.9-0.8
			c-0.3-0.1-0.6-0.1-0.9-0.1C-602.8,407.2-603.8,407.5-604.9,407.9z"/>
	</g>
</g>
</svg>
