<svg xmlns="http://www.w3.org/2000/svg" width="18.514" height="25.178" viewBox="0 0 18.514 25.178">
  <path id="Path_117" data-name="Path 117" d="M5054.986-1001.748a10.729,10.729,0,0,1-1.347,4.832,28.941,28.941,0,0,1-2.646,3.948,55.581,55.581,0,0,0-3.265,4.556c-.284.465-.544.944-.81,1.42a.475.475,0,0,1-.443.275.458.458,0,0,1-.426-.267,39.731,39.731,0,0,0-3.547-5.386,44.188,44.188,0,0,1-2.857-4.142,12.27,12.27,0,0,1-1.523-3.917,8.5,8.5,0,0,1,6.583-9.767,8.478,8.478,0,0,1,10.1,6.891C5054.9-1002.793,5054.928-1002.268,5054.986-1001.748Zm-12.828-.157a4.337,4.337,0,0,0,4.3,4.331,4.339,4.339,0,0,0,4.348-4.306,4.428,4.428,0,0,0-3.115-4.166,3.809,3.809,0,0,0-1.217-.173A4.329,4.329,0,0,0,5042.158-1001.905Z" transform="translate(-5037.223 1011.146)" fill="none" stroke="#fff" stroke-miterlimit="10" stroke-width="1.5"/>
</svg>
