<svg id="Icon_Cart" data-name="Icon Cart" xmlns="http://www.w3.org/2000/svg" width="19.798" height="19.218" viewBox="0 0 19.798 19.218">
  <path id="Cart" d="M92.619,81.821H78.285L77.46,79.88a.678.678,0,0,0-.469-.395l-2.659-.626a.678.678,0,1,0-.311,1.32l2.325.547L82.3,94.717a2.242,2.242,0,1,0,4.016.225h2.441a2.242,2.242,0,1,0,2.064-1.366l-7.529.01L82.362,91.4H92.619a.678.678,0,0,0,.678-.678V82.5A.678.678,0,0,0,92.619,81.821Zm-1.8,13.112a.886.886,0,1,1-.886.886A.886.886,0,0,1,90.82,94.932Zm-6.567,0a.886.886,0,1,1-.886.886A.886.886,0,0,1,84.253,94.932Zm7.688-9H87.446a.678.678,0,0,0,0,1.356h4.494v2.757H81.785l-2.923-6.871H91.941Z" transform="translate(-73.499 -78.841)" fill="#fff"/>
</svg>
