<svg id="Group_453" data-name="Group 453" xmlns="http://www.w3.org/2000/svg" width="159.752" height="46.78" viewBox="0 0 159.752 46.78">
  <g id="Group_452" data-name="Group 452" transform="translate(0 0)">
    <g id="Group_451" data-name="Group 451">
      <g id="Group_199" data-name="Group 199">
        <path id="Path_17" data-name="Path 17" d="M19.9,0A19.9,19.9,0,1,0,39.8,19.9,19.9,19.9,0,0,0,19.9,0M1.923,19.9A17.98,17.98,0,1,1,19.9,37.882,17.98,17.98,0,0,1,1.923,19.9" transform="translate(0 0)" fill="#fff"/>
        <path id="Path_18" data-name="Path 18" d="M68.282,47.71a.335.335,0,0,0-.233.094L58.856,56.99l-9.19-9.182a.331.331,0,0,0-.235-.1h-1.29a.331.331,0,0,0-.331.331v21.5a.331.331,0,0,0,.331.331h1.226a.331.331,0,0,0,.331-.331V50.494l7.829,7.827-2.314,2.313c1.56,0,2.623.037,3.644-.983,1.02,1.022,2.083.983,3.642.983l-2.315-2.313,7.831-7.836v19.06a.331.331,0,0,0,.331.331H69.6a.331.331,0,0,0,.331-.331v-21.5a.331.331,0,0,0-.331-.331ZM57.612,62.076a1.264,1.264,0,1,0,1.264-1.264,1.264,1.264,0,0,0-1.264,1.264" transform="translate(-38.972 -38.89)" fill="#fff"/>
        <path id="Path_19" data-name="Path 19" d="M302.981,36.41h-.95a.194.194,0,0,0-.161.085l-5.293,7.8-5.293-7.8a.194.194,0,0,0-.161-.085h-.95a.194.194,0,0,0-.194.194V50.192a.194.194,0,0,0,.194.194h.971a.194.194,0,0,0,.194-.194V39.015l5.023,7.308a.2.2,0,0,0,.161.083h.078a.2.2,0,0,0,.161-.083l5.017-7.308V50.19a.194.194,0,0,0,.194.194h1.009a.194.194,0,0,0,.194-.194V36.6a.194.194,0,0,0-.194-.192" transform="translate(-236.373 -29.679)" fill="#fff"/>
        <path id="Path_20" data-name="Path 20" d="M390.3,44.856h-6.559l3.289-7.2ZM387.712,36a.193.193,0,0,0-.176-.113h-.97a.193.193,0,0,0-.176.113l-6.328,13.684a.2.2,0,0,0,.013.187.194.194,0,0,0,.163.089h1.048a.194.194,0,0,0,.177-.115l1.675-3.69H390.9l1.675,3.69a.2.2,0,0,0,.177.115h1.105a.191.191,0,0,0,.163-.089.2.2,0,0,0,.013-.187Z" transform="translate(-309.788 -29.255)" fill="#fff"/>
        <path id="Path_21" data-name="Path 21" d="M483.71,49.066h-7.783V36.6a.194.194,0,0,0-.194-.194h-1.009a.194.194,0,0,0-.194.194V50.192a.194.194,0,0,0,.194.194h8.986a.194.194,0,0,0,.194-.194V49.26a.194.194,0,0,0-.194-.194" transform="translate(-386.806 -29.679)" fill="#fff"/>
        <path id="Path_22" data-name="Path 22" d="M549.482,44.856h-6.559l3.289-7.2ZM546.892,36a.194.194,0,0,0-.176-.113h-.971a.193.193,0,0,0-.175.113l-6.328,13.684a.2.2,0,0,0,.013.187.194.194,0,0,0,.163.089h1.048a.2.2,0,0,0,.177-.115l1.675-3.69h7.766l1.675,3.69a.2.2,0,0,0,.177.115h1.105a.194.194,0,0,0,.178-.275Z" transform="translate(-439.541 -29.255)" fill="#fff"/>
        <path id="Path_23" data-name="Path 23" d="M639.4,42.679h-4.289V37.73h4.387c2.006,0,3.2.863,3.2,2.311v.039c0,1.6-1.264,2.6-3.3,2.6m.448,6.387h-4.737V44h4.406c2.542,0,3.941.869,3.941,2.446v.039c0,1.592-1.385,2.581-3.61,2.581m2.312-5.9a3.421,3.421,0,0,0,1.956-3.183v-.039c0-2.146-1.806-3.533-4.6-3.533H633.9a.194.194,0,0,0-.194.194V50.192a.194.194,0,0,0,.194.194h5.9c3.078,0,5.065-1.531,5.065-3.9v-.039c0-1.555-.935-2.682-2.714-3.281" transform="translate(-516.56 -29.679)" fill="#fff"/>
        <path id="Path_24" data-name="Path 24" d="M717.968,44.856h-6.559l3.289-7.2ZM715.38,36a.194.194,0,0,0-.176-.113h-.97a.194.194,0,0,0-.176.113L707.73,49.686a.194.194,0,0,0,.175.275h1.048a.2.2,0,0,0,.178-.115l1.675-3.69h7.766l1.675,3.69a.2.2,0,0,0,.177.115h1.105a.194.194,0,0,0,.177-.275Z" transform="translate(-576.881 -29.255)" fill="#fff"/>
        <path id="Path_25" data-name="Path 25" d="M803.588,37.738h4.444c2.322,0,3.707,1.037,3.707,2.775v.039c0,1.769-1.479,2.912-3.766,2.912h-4.387V37.738ZM813.6,50.081l-4.283-5.544c2.4-.433,3.819-1.917,3.819-4.023v-.039c0-2.425-2.028-4.056-5.047-4.056h-5.707a.194.194,0,0,0-.194.194V50.2a.194.194,0,0,0,.194.194h1.009a.194.194,0,0,0,.194-.194V44.767h4.156l4.27,5.553a.2.2,0,0,0,.154.076h1.281a.2.2,0,0,0,.153-.314" transform="translate(-653.894 -29.687)" fill="#fff"/>
        <path id="Path_26" data-name="Path 26" d="M296.4,142.27h-2.867a.1.1,0,0,0-.1.1v.484a.1.1,0,0,0,.1.1h2.265v1.887a3.544,3.544,0,0,1-2.154.756,2.854,2.854,0,0,1-2.932-3.093v-.02a2.918,2.918,0,0,1,2.821-3.063,3.1,3.1,0,0,1,2.207.825.1.1,0,0,0,.07.024.1.1,0,0,0,.067-.033l.344-.394a.1.1,0,0,0,.024-.072.1.1,0,0,0-.035-.067,3.8,3.8,0,0,0-2.645-.95,3.642,3.642,0,0,0-3.59,3.751v.02a3.532,3.532,0,0,0,3.651,3.731,4.352,4.352,0,0,0,2.841-1.085.1.1,0,0,0,.033-.072v-2.727a.1.1,0,0,0-.1-.1" transform="translate(-236.365 -113.1)" fill="#fff"/>
        <path id="Path_27" data-name="Path 27" d="M339.17,145.566a2.974,2.974,0,0,1-2.921-3.083v-.02a2.921,2.921,0,0,1,2.9-3.063,2.974,2.974,0,0,1,2.921,3.084v.02a2.923,2.923,0,0,1-2.9,3.063m0-6.836a3.672,3.672,0,0,0-3.66,3.751v.02a3.605,3.605,0,0,0,3.64,3.731,3.672,3.672,0,0,0,3.66-3.725.1.1,0,0,0,0-.074,3.6,3.6,0,0,0-3.64-3.7" transform="translate(-273.486 -113.084)" fill="#fff"/>
        <path id="Path_28" data-name="Path 28" d="M391.1,145.973h-4.052v-6.485a.1.1,0,0,0-.1-.1h-.525a.1.1,0,0,0-.1.1v7.067a.1.1,0,0,0,.1.1H391.1a.1.1,0,0,0,.1-.1v-.484a.094.094,0,0,0-.1-.1" transform="translate(-314.911 -113.622)" fill="#fff"/>
        <path id="Path_29" data-name="Path 29" d="M425.321,145.973h-1.73v-5.9h1.73a2.936,2.936,0,0,1,3.113,2.952v.02a2.9,2.9,0,0,1-3.113,2.932m0-6.583h-2.353a.1.1,0,0,0-.1.1v7.067a.1.1,0,0,0,.1.1h2.352a3.623,3.623,0,0,0,3.853-3.631V143a3.612,3.612,0,0,0-3.851-3.612" transform="translate(-344.696 -113.622)" fill="#fff"/>
        <path id="Path_30" data-name="Path 30" d="M482.288,145.558a1.451,1.451,0,0,1-1.558-1.436c0-.7.529-1.279,1.492-1.625l1.985,2.052a2.583,2.583,0,0,1-1.919,1.009m.6-6.2a1,1,0,0,1,1.024,1.024c0,.617-.457,1.069-1.4,1.383-.573-.616-.751-.937-.751-1.353a1.055,1.055,0,0,1,1.124-1.054m2.239,5.093a10.15,10.15,0,0,0,1.011-1.83.1.1,0,0,0,0-.076.1.1,0,0,0-.054-.054l-.475-.192a.1.1,0,0,0-.126.052,9.25,9.25,0,0,1-.841,1.6l-1.671-1.716c1.117-.418,1.658-1.033,1.658-1.878a1.665,1.665,0,0,0-1.723-1.642,1.753,1.753,0,0,0-1.863,1.712,2.307,2.307,0,0,0,.719,1.584,2.336,2.336,0,0,0-1.758,2.12,2.1,2.1,0,0,0,2.268,2.065,3.118,3.118,0,0,0,2.4-1.176l1.148,1.187a.094.094,0,0,0,.07.029.1.1,0,0,0,.063-.022l.414-.344a.1.1,0,0,0,.035-.07.088.088,0,0,0-.028-.072Z" transform="translate(-391.273 -113.076)" fill="#fff"/>
        <path id="Path_31" data-name="Path 31" d="M540.9,145.973h-1.73v-5.9h1.73a2.936,2.936,0,0,1,3.113,2.952v.02a2.9,2.9,0,0,1-3.113,2.932m0-6.583h-2.352a.1.1,0,0,0-.1.1v7.067a.1.1,0,0,0,.1.1H540.9a3.623,3.623,0,0,0,3.853-3.631V143a3.614,3.614,0,0,0-3.853-3.612" transform="translate(-438.91 -113.622)" fill="#fff"/>
        <path id="Path_32" data-name="Path 32" d="M584.883,139.39h-.525a.1.1,0,0,0-.1.1v7.067a.1.1,0,0,0,.1.1h.525a.1.1,0,0,0,.1-.1v-7.067a.1.1,0,0,0-.1-.1" transform="translate(-476.251 -113.622)" fill="#fff"/>
        <path id="Path_33" data-name="Path 33" d="M603.637,143.784h-3.424l1.715-3.758Zm-1.355-4.609a.1.1,0,0,0-.089-.055h-.5a.1.1,0,0,0-.089.055l-3.291,7.117a.1.1,0,0,0,.087.137h.545a.1.1,0,0,0,.089-.057l.873-1.921h4.045l.872,1.921a.1.1,0,0,0,.089.057h.575a.1.1,0,0,0,.081-.044.092.092,0,0,0,.006-.092Z" transform="translate(-487.696 -113.402)" fill="#fff"/>
        <path id="Path_34" data-name="Path 34" d="M654.225,139.39h-.493a.1.1,0,0,0-.079.042l-2.756,4.062-2.756-4.062a.094.094,0,0,0-.08-.042h-.493a.1.1,0,0,0-.1.1v7.067a.1.1,0,0,0,.1.1h.5a.1.1,0,0,0,.1-.1V140.73l2.62,3.812a.1.1,0,0,0,.08.043h.041a.094.094,0,0,0,.079-.043l2.619-3.812v5.825a.1.1,0,0,0,.1.1h.525a.1.1,0,0,0,.1-.1v-7.067a.1.1,0,0,0-.1-.1" transform="translate(-527.776 -113.622)" fill="#fff"/>
        <path id="Path_35" data-name="Path 35" d="M699.55,145.566a2.974,2.974,0,0,1-2.921-3.083v-.02a2.921,2.921,0,0,1,2.9-3.063,2.974,2.974,0,0,1,2.921,3.084v.02a2.923,2.923,0,0,1-2.9,3.063m0-6.836a3.674,3.674,0,0,0-3.66,3.751v.02a3.605,3.605,0,0,0,3.64,3.731,3.672,3.672,0,0,0,3.66-3.725.1.1,0,0,0,0-.074,3.6,3.6,0,0,0-3.64-3.7" transform="translate(-567.245 -113.084)" fill="#fff"/>
        <path id="Path_36" data-name="Path 36" d="M752.693,139.39h-.5a.1.1,0,0,0-.1.1v5.869l-4.7-5.929a.1.1,0,0,0-.076-.037h-.494a.1.1,0,0,0-.1.1v7.067a.1.1,0,0,0,.1.1h.5a.1.1,0,0,0,.1-.1v-6l4.8,6.062a.1.1,0,0,0,.076.037h.394a.1.1,0,0,0,.1-.1V139.49a.1.1,0,0,0-.1-.1" transform="translate(-608.678 -113.622)" fill="#fff"/>
        <path id="Path_37" data-name="Path 37" d="M795.048,145.973h-1.73v-5.9h1.73a2.936,2.936,0,0,1,3.113,2.952v.02a2.9,2.9,0,0,1-3.113,2.932m0-6.583H792.7a.1.1,0,0,0-.1.1v7.067a.1.1,0,0,0,.1.1h2.352a3.623,3.623,0,0,0,3.852-3.631V143a3.614,3.614,0,0,0-3.852-3.612" transform="translate(-646.076 -113.622)" fill="#fff"/>
        <path id="Path_38" data-name="Path 38" d="M838,142.222c-1.666-.342-1.982-.773-1.982-1.449v-.02c0-.715.684-1.235,1.629-1.235a2.937,2.937,0,0,1,2.046.775.094.094,0,0,0,.072.022.1.1,0,0,0,.067-.035l.333-.414a.09.09,0,0,0,.02-.07.1.1,0,0,0-.035-.065,3.637,3.637,0,0,0-2.483-.88A2.143,2.143,0,0,0,835.3,140.8v.02c0,1.126.712,1.73,2.461,2.083,1.615.325,1.921.747,1.921,1.409v.02c0,.769-.7,1.307-1.69,1.307a3.314,3.314,0,0,1-2.468-1.024.1.1,0,0,0-.07-.026.1.1,0,0,0-.068.033l-.344.394a.1.1,0,0,0,.007.137,4.119,4.119,0,0,0,2.912,1.155,2.16,2.16,0,0,0,2.438-2.024v-.02c0-1.093-.715-1.7-2.4-2.046" transform="translate(-680.654 -113.182)" fill="#fff"/>
        <g id="Group_56" data-name="Group 56" transform="translate(53.605 42.709)">
          <path id="Path_39" data-name="Path 39" d="M293.294,234.16a.049.049,0,0,0-.068,0,1.7,1.7,0,0,1-1.287.584,1.615,1.615,0,0,1-1.575-1.69,1.585,1.585,0,0,1,1.569-1.667,1.719,1.719,0,0,1,1.261.551.047.047,0,0,0,.068,0l.2-.209a.051.051,0,0,0,.015-.035.046.046,0,0,0-.017-.035,2.06,2.06,0,0,0-1.525-.627,1.984,1.984,0,0,0-1.969,2.046,1.948,1.948,0,0,0,1.958,2.024,2.09,2.09,0,0,0,1.56-.684.049.049,0,0,0,0-.07Z" transform="translate(-289.97 -231.03)" fill="#fff"/>
          <path id="Path_40" data-name="Path 40" d="M317.81,234.949h-2.426v-1.444h2.15a.05.05,0,0,0,.05-.05v-.263a.05.05,0,0,0-.05-.05h-2.15v-1.411h2.4a.05.05,0,0,0,.05-.05v-.263a.05.05,0,0,0-.05-.05H315.05a.05.05,0,0,0-.05.05v3.84a.05.05,0,0,0,.05.05h2.76a.05.05,0,0,0,.05-.05V235a.052.052,0,0,0-.05-.05" transform="translate(-310.373 -231.307)" fill="#fff"/>
          <path id="Path_41" data-name="Path 41" d="M339.7,234.957h-2.205V231.43a.049.049,0,0,0-.048-.05h-.285a.05.05,0,0,0-.05.05v3.84a.05.05,0,0,0,.05.05h2.54a.05.05,0,0,0,.05-.05v-.262a.053.053,0,0,0-.052-.05" transform="translate(-328.396 -231.315)" fill="#fff"/>
          <path id="Path_42" data-name="Path 42" d="M360.5,234.949h-2.425v-1.444h2.15a.05.05,0,0,0,.05-.05v-.263a.05.05,0,0,0-.05-.05h-2.15v-1.411h2.4a.05.05,0,0,0,.05-.05v-.263a.05.05,0,0,0-.05-.05H357.74a.05.05,0,0,0-.05.05v3.84a.05.05,0,0,0,.05.05h2.76a.05.05,0,0,0,.05-.05V235a.05.05,0,0,0-.05-.05" transform="translate(-345.171 -231.307)" fill="#fff"/>
          <path id="Path_43" data-name="Path 43" d="M381.431,231.742c.562,0,.911.251.911.669,0,.457-.359.741-.939.741h-1.218v-1.411Zm.1,3.215h-1.344v-1.444h1.251c.721,0,1.118.248,1.118.708s-.392.736-1.026.736m.64-1.673a.972.972,0,0,0,.562-.911c0-.6-.508-.993-1.294-.993H379.85a.05.05,0,0,0-.05.05v3.84a.048.048,0,0,0,.05.048h1.667c.867,0,1.425-.431,1.425-1.107a.963.963,0,0,0-.775-.926" transform="translate(-363.194 -231.315)" fill="#fff"/>
          <path id="Path_44" data-name="Path 44" d="M403.843,231.742h1.263c.66,0,1.054.3,1.054.8s-.42.828-1.07.828h-1.246Zm1.616,1.923a1.152,1.152,0,0,0,1.083-1.144c0-.682-.571-1.141-1.42-1.141H403.51a.05.05,0,0,0-.05.05v3.84a.05.05,0,0,0,.05.05h.285a.05.05,0,0,0,.05-.05v-1.542h1.183l1.209,1.571a.046.046,0,0,0,.039.019h.362a.052.052,0,0,0,.044-.028.048.048,0,0,0-.006-.052Z" transform="translate(-382.48 -231.315)" fill="#fff"/>
          <path id="Path_45" data-name="Path 45" d="M428.265,233.774h-1.871l.937-2.054Zm-.745-2.507a.05.05,0,0,0-.044-.028H427.2a.049.049,0,0,0-.044.028l-1.788,3.867a.049.049,0,0,0,.044.068h.3a.048.048,0,0,0,.044-.03l.475-1.046h2.2l.475,1.046a.051.051,0,0,0,.044.03h.313a.051.051,0,0,0,.041-.022.047.047,0,0,0,0-.046Z" transform="translate(-400.336 -231.201)" fill="#fff"/>
          <path id="Path_46" data-name="Path 46" d="M451.661,231.39H448.7a.05.05,0,0,0-.05.05v.263a.05.05,0,0,0,.05.05h1.288v3.527a.05.05,0,0,0,.05.05h.285a.05.05,0,0,0,.05-.05v-3.527h1.288a.05.05,0,0,0,.05-.05v-.263a.052.052,0,0,0-.05-.05" transform="translate(-419.316 -231.323)" fill="#fff"/>
          <path id="Path_47" data-name="Path 47" d="M474.38,234.949h-2.425v-1.444h2.15a.05.05,0,0,0,.05-.05v-.263a.05.05,0,0,0-.05-.05h-2.15v-1.411h2.4a.05.05,0,0,0,.05-.05v-.263a.05.05,0,0,0-.05-.05H471.62a.05.05,0,0,0-.05.05v3.84a.05.05,0,0,0,.05.05h2.76a.05.05,0,0,0,.05-.05V235a.05.05,0,0,0-.05-.05" transform="translate(-437.999 -231.307)" fill="#fff"/>
          <path id="Path_48" data-name="Path 48" d="M506.341,231.39H503.38a.049.049,0,0,0-.05.05v.263a.049.049,0,0,0,.05.05h1.289v3.527a.05.05,0,0,0,.05.05H505a.05.05,0,0,0,.05-.05v-3.527h1.289a.05.05,0,0,0,.05-.05v-.263a.05.05,0,0,0-.05-.05" transform="translate(-463.887 -231.323)" fill="#fff"/>
          <path id="Path_49" data-name="Path 49" d="M529.338,231.382h-.285a.05.05,0,0,0-.05.05v1.727h-2.361V231.43a.049.049,0,0,0-.048-.05h-.285a.05.05,0,0,0-.05.05v3.84a.05.05,0,0,0,.05.05h.285a.048.048,0,0,0,.048-.05v-1.751H529v1.751a.05.05,0,0,0,.05.05h.285a.05.05,0,0,0,.05-.05v-3.84a.049.049,0,0,0-.05-.048" transform="translate(-482.578 -231.315)" fill="#fff"/>
          <path id="Path_50" data-name="Path 50" d="M553.85,234.949h-2.425v-1.444h2.15a.05.05,0,0,0,.05-.05v-.263a.05.05,0,0,0-.05-.05h-2.15v-1.411h2.4a.05.05,0,0,0,.05-.05v-.263a.05.05,0,0,0-.05-.05H551.09a.05.05,0,0,0-.05.05v3.84a.05.05,0,0,0,.05.05h2.76a.05.05,0,0,0,.05-.05V235a.052.052,0,0,0-.05-.05" transform="translate(-502.777 -231.307)" fill="#fff"/>
          <path id="Path_51" data-name="Path 51" d="M585.9,231.742c.562,0,.911.251.911.669,0,.457-.359.741-.937.741h-1.218v-1.411Zm.1,3.215h-1.344v-1.444h1.251c.721,0,1.12.248,1.12.708s-.394.736-1.028.736m.64-1.673a.972.972,0,0,0,.562-.911c0-.6-.508-.993-1.294-.993H584.32a.05.05,0,0,0-.05.05v3.84a.048.048,0,0,0,.05.048h1.667c.867,0,1.427-.431,1.427-1.107a.967.967,0,0,0-.776-.926" transform="translate(-529.864 -231.315)" fill="#fff"/>
          <path id="Path_52" data-name="Path 52" d="M610.738,234.949h-2.425v-1.444h2.15a.05.05,0,0,0,.05-.05v-.263a.05.05,0,0,0-.05-.05h-2.15v-1.411h2.4a.051.051,0,0,0,.05-.05v-.263a.05.05,0,0,0-.05-.05h-2.732a.048.048,0,0,0-.048.05v3.84a.05.05,0,0,0,.048.05h2.76a.05.05,0,0,0,.05-.05V235a.052.052,0,0,0-.05-.05" transform="translate(-549.151 -231.307)" fill="#fff"/>
          <path id="Path_53" data-name="Path 53" d="M631.157,233.774h-1.873l.939-2.054Zm-.747-2.507a.049.049,0,0,0-.044-.028h-.273a.049.049,0,0,0-.044.028l-1.788,3.867a.046.046,0,0,0,0,.046.046.046,0,0,0,.041.022h.3a.049.049,0,0,0,.045-.03l.475-1.046h2.2l.475,1.046a.051.051,0,0,0,.044.03h.313a.05.05,0,0,0,.04-.022.051.051,0,0,0,0-.046Z" transform="translate(-565.718 -231.201)" fill="#fff"/>
          <path id="Path_54" data-name="Path 54" d="M657.82,231.382h-.285a.05.05,0,0,0-.05.05v2.242c0,.858-.447,1.349-1.23,1.349s-1.251-.5-1.251-1.377V231.43a.05.05,0,0,0-.05-.05h-.285a.05.05,0,0,0-.05.05v2.242a1.546,1.546,0,0,0,1.623,1.706,1.562,1.562,0,0,0,1.623-1.738V231.43a.047.047,0,0,0-.046-.048" transform="translate(-587.209 -231.315)" fill="#fff"/>
          <path id="Path_55" data-name="Path 55" d="M681.261,231.39H678.3a.048.048,0,0,0-.048.05v.263a.049.049,0,0,0,.048.05h1.29v3.527a.05.05,0,0,0,.05.05h.285a.05.05,0,0,0,.05-.05v-3.527h1.288a.05.05,0,0,0,.05-.05v-.263a.052.052,0,0,0-.05-.05" transform="translate(-606.471 -231.323)" fill="#fff"/>
          <path id="Path_56" data-name="Path 56" d="M702.657,231.39h-.34a.049.049,0,0,0-.041.02l-1.4,2-1.4-2a.049.049,0,0,0-.041-.02h-.357a.05.05,0,0,0-.044.026.048.048,0,0,0,0,.052l1.636,2.307v1.5a.05.05,0,0,0,.05.05h.285a.049.049,0,0,0,.048-.05v-1.509l1.636-2.3a.047.047,0,0,0,0-.052.037.037,0,0,0-.039-.026" transform="translate(-623.408 -231.323)" fill="#fff"/>
          <path id="Path_57" data-name="Path 57" d="M736.845,234.744a1.622,1.622,0,0,1-1.592-1.69,1.591,1.591,0,0,1,1.581-1.667,1.623,1.623,0,0,1,1.592,1.69,1.591,1.591,0,0,1-1.581,1.667m0-3.714a2,2,0,0,0-1.985,2.046,1.956,1.956,0,0,0,1.974,2.024,1.993,1.993,0,0,0,1.986-2.022.071.071,0,0,0,0-.018.089.089,0,0,0,0-.019,1.954,1.954,0,0,0-1.974-2.011" transform="translate(-652.616 -231.03)" fill="#fff"/>
          <path id="Path_58" data-name="Path 58" d="M765.985,231.39h-2.7a.05.05,0,0,0-.05.05v3.84a.05.05,0,0,0,.05.05h.284a.05.05,0,0,0,.05-.05v-1.69h2.122a.05.05,0,0,0,.05-.05v-.263a.05.05,0,0,0-.05-.05h-2.122V231.75h2.37a.05.05,0,0,0,.05-.05v-.263a.052.052,0,0,0-.05-.048" transform="translate(-675.741 -231.323)" fill="#fff"/>
          <path id="Path_59" data-name="Path 59" d="M798.63,234.957h-2.205V231.43a.05.05,0,0,0-.05-.05h-.285a.05.05,0,0,0-.05.05v3.84a.05.05,0,0,0,.05.05h2.54a.05.05,0,0,0,.05-.05v-.262a.05.05,0,0,0-.05-.05" transform="translate(-702.486 -231.315)" fill="#fff"/>
          <path id="Path_60" data-name="Path 60" d="M817.185,231.39H816.9a.05.05,0,0,0-.05.05v3.84a.05.05,0,0,0,.05.05h.285a.05.05,0,0,0,.05-.05v-3.84a.052.052,0,0,0-.05-.05" transform="translate(-719.449 -231.323)" fill="#fff"/>
          <path id="Path_61" data-name="Path 61" d="M829.744,231.39h-2.7a.05.05,0,0,0-.05.05v3.84a.05.05,0,0,0,.05.05h.285a.05.05,0,0,0,.05-.05v-1.69H829.5a.05.05,0,0,0,.05-.05v-.263a.05.05,0,0,0-.05-.05h-2.122V231.75h2.37a.05.05,0,0,0,.05-.05v-.263a.052.052,0,0,0-.05-.048" transform="translate(-727.714 -231.323)" fill="#fff"/>
          <path id="Path_62" data-name="Path 62" d="M851.5,234.949h-2.426v-1.444h2.15a.05.05,0,0,0,.05-.05v-.263a.05.05,0,0,0-.05-.05h-2.15v-1.411h2.4a.05.05,0,0,0,.05-.05v-.263a.049.049,0,0,0-.05-.05h-2.73a.05.05,0,0,0-.05.05v3.84a.05.05,0,0,0,.05.05h2.76a.05.05,0,0,0,.05-.05V235a.056.056,0,0,0-.052-.05" transform="translate(-745.403 -231.307)" fill="#fff"/>
        </g>
      </g>
    </g>
  </g>
</svg>
