<svg xmlns="http://www.w3.org/2000/svg" xmlns:xlink="http://www.w3.org/1999/xlink" width="31" height="31" viewBox="0 0 31 31">
  <defs>
    <linearGradient id="linear-gradient" x1="0.5" x2="0.899" y2="0.57" gradientUnits="objectBoundingBox">
      <stop offset="0" stop-color="#c9107a"/>
      <stop offset="1" stop-color="#7a014e"/>
    </linearGradient>
  </defs>
  <g id="Group_460" data-name="Group 460" transform="translate(0.027 0.368)">
    <g id="Rectangle_62" data-name="Rectangle 62" transform="translate(-0.027 -0.368)" fill="#fff" stroke="#a8996e" stroke-width="0.5">
      <rect width="31" height="31" rx="3" stroke="none"/>
      <rect x="0.25" y="0.25" width="30.5" height="30.5" rx="2.75" fill="none"/>
    </g>
    <path id="Path_111" data-name="Path 111" d="M6.826,13.619a14.216,14.216,0,0,1-3.084,6.864c-.063-.435-.123-.87-.19-1.3a13.847,13.847,0,0,1,.671-5.766c.309-1.162.592-2.331.864-3.5a1.147,1.147,0,0,0-.06-.568,4.552,4.552,0,0,1-.094-2.7A2.363,2.363,0,0,1,7.261,4.815,1.409,1.409,0,0,1,8.7,6.186a7.776,7.776,0,0,1-.267,1.971c-.2.828-.517,1.626-.721,2.452a1.807,1.807,0,0,0,1.85,2.324,3.489,3.489,0,0,0,3.1-1.8,6.267,6.267,0,0,0,.418-6.319A4.422,4.422,0,0,0,9.8,2.351a6.469,6.469,0,0,0-5.27,1A5.286,5.286,0,0,0,2.651,9.292,5.966,5.966,0,0,0,3,9.985c.134.246.41.5.391.729a6.31,6.31,0,0,1-.381,1.5c-.023.067-.356.107-.49.043A4.05,4.05,0,0,1,.643,10.2a6.908,6.908,0,0,1,2.234-8.48A9.416,9.416,0,0,1,9.552.054,7.906,7.906,0,0,1,14.86,2.613a6.882,6.882,0,0,1,1.688,5.858,7.338,7.338,0,0,1-3.121,5.321,5.373,5.373,0,0,1-5.163.752A8.619,8.619,0,0,1,6.826,13.619Z" transform="translate(6.896 5.45)" fill="url(#linear-gradient)"/>
  </g>
</svg>
