<svg width="22" height="21" viewBox="0 0 22 21" fill="none" xmlns="http://www.w3.org/2000/svg">
<path d="M14.3301 6.97888C14.3301 10.5289 11.2631 13.4578 7.41506 13.4578C3.56699 13.4578 0.5 10.5289 0.5 6.97888C0.5 3.42882 3.56699 0.5 7.41506 0.5C11.2631 0.5 14.3301 3.42882 14.3301 6.97888Z" stroke="white"/>
<path d="M14.1777 12.5727C13.9913 12.3927 13.7422 12.2921 13.4831 12.2921L13.3025 12.2921L13.3025 12.5012C13.3025 12.7544 13.4054 12.9967 13.5876 13.1726L19.9993 19.3644C20.1665 19.5258 20.4328 19.5212 20.5942 19.354V19.354C20.7556 19.1869 20.751 18.9205 20.5838 18.7591L17.3868 15.6717L14.1777 12.5727Z" stroke="white" stroke-width="2"/>
</svg>
