<svg xmlns="http://www.w3.org/2000/svg" width="19.856" height="16.522" viewBox="0 0 19.856 16.522">
  <path id="Path_115" data-name="Path 115" d="M5.689,1A5.069,5.069,0,0,1,9.23,2.263c.2.185.406.362.609.539a.424.424,0,0,0,.662,0c.168-.159.336-.318.512-.477a4.908,4.908,0,0,1,4.071-1.28,4.723,4.723,0,0,1,3.338,1.872,4.6,4.6,0,0,1-.548,6.128c-2.473,2.278-4.945,4.539-7.418,6.808a.369.369,0,0,1-.583.009c-2.446-2.243-4.91-4.486-7.347-6.747A4.39,4.39,0,0,1,1.186,4.488,4.519,4.519,0,0,1,4.7,1.15,7.78,7.78,0,0,1,5.689,1Z" transform="translate(-0.24 -0.249)" fill="none" stroke="#fff" stroke-miterlimit="10" stroke-width="1.5"/>
</svg>
